<svg width="current" height="current" viewBox="0 0 40 40" fill="none" xmlns="http://www.w3.org/2000/svg">
<path fill-rule="evenodd" clip-rule="evenodd" d="M21.6698 8.33244C21.6698 7.41196 20.9236 6.66577 20.0031 6.66577C19.0827 6.66577 18.3365 7.41196 18.3365 8.33244V21.8095L13.6816 17.1546C13.0307 16.5037 11.9755 16.5037 11.3246 17.1546C10.6737 17.8055 10.6737 18.8608 11.3246 19.5116L17.6461 25.8332C18.9479 27.135 21.0584 27.135 22.3602 25.8332L28.6785 19.5149C29.3294 18.864 29.3294 17.8087 28.6785 17.1579C28.0276 16.507 26.9724 16.507 26.3215 17.1579L21.6698 21.8095V8.33244Z" fill="currentColor"/>
<path fill-rule="evenodd" clip-rule="evenodd" d="M6.66667 23.3333C7.58714 23.3333 8.33333 24.0794 8.33333 24.9999V28.3333C8.33333 29.2537 9.07953 29.9999 10 29.9999H30C30.9205 29.9999 31.6667 29.2537 31.6667 28.3333V24.9999C31.6667 24.0794 32.4129 23.3333 33.3333 23.3333C34.2538 23.3333 35 24.0794 35 24.9999V28.3333C35 31.0947 32.7614 33.3333 30 33.3333H10C7.23858 33.3333 5 31.0947 5 28.3333V24.9999C5 24.0794 5.74619 23.3333 6.66667 23.3333Z" fill="currentColor"/>
</svg>
