<svg width="current" height="current" viewBox="0 0 32 32" fill="none" xmlns="http://www.w3.org/2000/svg">
<path d="M29.0613 26.9387L23.1251 21C24.905 18.6805 25.7359 15.7709 25.4494 12.8614C25.163 9.95181 23.7805 7.26016 21.5824 5.33244C19.3843 3.40471 16.5353 2.38527 13.6132 2.4809C10.6911 2.57653 7.91485 3.78008 5.84752 5.8474C3.7802 7.91472 2.57665 10.691 2.48102 13.6131C2.38539 16.5351 3.40483 19.3842 5.33256 21.5823C7.26028 23.7803 9.95194 25.1628 12.8615 25.4493C15.7711 25.7358 18.6807 24.9048 21.0001 23.125L26.9413 29.0674C27.0809 29.207 27.2465 29.3177 27.4288 29.3932C27.6111 29.4687 27.8065 29.5076 28.0038 29.5076C28.2011 29.5076 28.3965 29.4687 28.5788 29.3932C28.7611 29.3177 28.9268 29.207 29.0663 29.0674C29.2059 28.9279 29.3165 28.7623 29.392 28.58C29.4676 28.3977 29.5064 28.2023 29.5064 28.0049C29.5064 27.8076 29.4676 27.6122 29.392 27.4299C29.3165 27.2476 29.2059 27.082 29.0663 26.9424L29.0613 26.9387ZM5.50007 14C5.50007 12.3188 5.99859 10.6754 6.93258 9.2776C7.86657 7.87979 9.19409 6.79032 10.7473 6.14698C12.3004 5.50363 14.0095 5.3353 15.6583 5.66328C17.3072 5.99125 18.8217 6.8008 20.0105 7.98954C21.1992 9.17829 22.0088 10.6928 22.3367 12.3417C22.6647 13.9905 22.4964 15.6996 21.853 17.2528C21.2097 18.8059 20.1202 20.1334 18.7224 21.0674C17.3246 22.0014 15.6812 22.5 14.0001 22.5C11.7464 22.4976 9.58578 21.6014 7.99222 20.0078C6.39867 18.4142 5.50239 16.2536 5.50007 14Z" fill="currentColor"/>
</svg>
