<svg width="current" height="current" viewBox="0 0 40 40" fill="none" xmlns="http://www.w3.org/2000/svg">
<path fill-rule="evenodd" clip-rule="evenodd" d="M18.0001 27.3335C19.1853 26.4446 20.8149 26.4446 22.0001 27.3335L27.3334 31.3335C28.4321 32.1575 30.0001 31.3736 30.0001 30.0002V8.3335C30.0001 7.41302 29.2539 6.66683 28.3334 6.66683H11.6667C10.7463 6.66683 10.0001 7.41302 10.0001 8.3335V30.0002C10.0001 31.3736 11.568 32.1575 12.6667 31.3335L18.0001 27.3335ZM20.0001 30.0002L25.3334 34.0002C28.6296 36.4723 33.3334 34.1204 33.3334 30.0002V8.3335C33.3334 5.57207 31.0948 3.3335 28.3334 3.3335H11.6667C8.90532 3.3335 6.66675 5.57207 6.66675 8.3335V30.0002C6.66675 34.1204 11.3706 36.4723 14.6667 34.0002L20.0001 30.0002Z" fill="currentColor"/>
<path fill-rule="evenodd" clip-rule="evenodd" d="M13.3333 11.6669C13.3333 10.7464 14.0794 10.0002 14.9999 10.0002H24.9999C25.9204 10.0002 26.6666 10.7464 26.6666 11.6669C26.6666 12.5874 25.9204 13.3336 24.9999 13.3336H14.9999C14.0794 13.3336 13.3333 12.5874 13.3333 11.6669Z" fill="currentColor"/>
</svg>
