<svg width="current" height="current" viewBox="0 0 40 40" fill="none" xmlns="http://www.w3.org/2000/svg">
<path fill-rule="evenodd" clip-rule="evenodd" d="M30 8.33333H10C9.07953 8.33333 8.33333 9.07953 8.33333 10V30C8.33333 30.9205 9.07953 31.6667 10 31.6667H30C30.9205 31.6667 31.6667 30.9205 31.6667 30V10C31.6667 9.07953 30.9205 8.33333 30 8.33333ZM10 5C7.23858 5 5 7.23858 5 10V30C5 32.7614 7.23858 35 10 35H30C32.7614 35 35 32.7614 35 30V10C35 7.23858 32.7614 5 30 5H10Z" fill="currentColor"/>
<path fill-rule="evenodd" clip-rule="evenodd" d="M27.8453 13.8217C28.4962 14.4725 28.4962 15.5278 27.8453 16.1787L19.0239 25.0002C17.7221 26.3019 15.6116 26.3019 14.3098 25.0002L11.3217 22.012C10.6708 21.3611 10.6708 20.3059 11.3217 19.655C11.9725 19.0041 13.0278 19.0041 13.6787 19.655L16.6668 22.6431L25.4883 13.8217C26.1392 13.1708 27.1945 13.1708 27.8453 13.8217Z" fill="currentColor"/>
</svg>
