<svg width="current" height="current" viewBox="0 0 40 40" fill="none" xmlns="http://www.w3.org/2000/svg">
<path fill-rule="evenodd" clip-rule="evenodd" d="M11.6667 3.3335C8.90532 3.3335 6.66675 5.57207 6.66675 8.3335V31.6668C6.66675 35.1004 10.5866 37.0603 13.3334 35.0002L19.5001 30.3752C19.7964 30.1529 20.2038 30.1529 20.5001 30.3752L26.6667 35.0002C29.4136 37.0603 33.3334 35.1004 33.3334 31.6668V8.3335C33.3334 5.57207 31.0948 3.3335 28.3334 3.3335H11.6667ZM15.0001 10.0002C14.0796 10.0002 13.3334 10.7464 13.3334 11.6668C13.3334 12.5873 14.0796 13.3335 15.0001 13.3335H25.0001C25.9206 13.3335 26.6667 12.5873 26.6667 11.6668C26.6667 10.7464 25.9206 10.0002 25.0001 10.0002H15.0001Z" fill="currentColor"/>
</svg>
