<svg width="35" height="35" viewBox="0 0 35 35" fill="none" xmlns="http://www.w3.org/2000/svg">
<path fill-rule="evenodd" clip-rule="evenodd" d="M14.5833 14.5833C15.3887 14.5833 16.0417 15.2363 16.0417 16.0417V23.3333C16.0417 24.1388 15.3887 24.7917 14.5833 24.7917C13.7779 24.7917 13.125 24.1388 13.125 23.3333V16.0417C13.125 15.2363 13.7779 14.5833 14.5833 14.5833Z" fill="white"/>
<path fill-rule="evenodd" clip-rule="evenodd" d="M20.4163 14.5833C21.2218 14.5833 21.8747 15.2363 21.8747 16.0417V23.3333C21.8747 24.1388 21.2218 24.7917 20.4163 24.7917C19.6109 24.7917 18.958 24.1388 18.958 23.3333V16.0417C18.958 15.2363 19.6109 14.5833 20.4163 14.5833Z" fill="white"/>
<path fill-rule="evenodd" clip-rule="evenodd" d="M14.5837 2.91666C12.1674 2.91666 10.2087 4.87542 10.2087 7.29166H5.83366H4.37533C3.56991 7.29166 2.91699 7.94458 2.91699 8.75C2.91699 9.55541 3.56991 10.2083 4.37533 10.2083H5.83366V27.7083C5.83366 30.1246 7.79241 32.0833 10.2087 32.0833H24.792C27.2082 32.0833 29.167 30.1246 29.167 27.7083V10.2083H30.6253C31.4307 10.2083 32.0837 9.55541 32.0837 8.75C32.0837 7.94458 31.4307 7.29166 30.6253 7.29166H29.167H24.792C24.792 4.87542 22.8332 2.91666 20.417 2.91666H14.5837ZM21.8753 7.29166C21.8753 6.48625 21.2224 5.83333 20.417 5.83333H14.5837C13.7782 5.83333 13.1253 6.48625 13.1253 7.29166H21.8753ZM10.2087 10.2083H8.75033V27.7083C8.75033 28.5137 9.40324 29.1667 10.2087 29.1667H24.792C25.5974 29.1667 26.2503 28.5137 26.2503 27.7083V10.2083H24.792H10.2087Z" fill="white"/>
</svg>
